<svg width="1219" height="496" viewBox="0 0 1219 496" fill="none" xmlns="http://www.w3.org/2000/svg">
<path opacity="0.3" d="M221.333 2.61538H220V0H218.667V6.53846H217.333V5.23077H216V3.92308H213.333V6.53846H214.667V7.84615H217.333V9.15385H214.667V11.7692H213.333V13.0769H212V14.3846H214.667V13.0769H216V11.7692H218.667V15.6923H220V17H221.333V11.7692H224V13.0769H226.667V14.3846H228V11.7692H225.333V10.4615H222.667V7.84615H225.333V6.53846H226.667V5.23077H228V3.92308H225.333V5.23077H222.667V6.53846H221.333V2.61538Z" fill="#DC78FF" style="fill:#DC78FF;fill:color(display-p3 0.8625 0.4710 1.0000);fill-opacity:1;"/>
<path opacity="0.3" d="M518.917 10.6154H517.5V8H516.083V14.5385H514.667V13.2308H513.25V11.9231H510.417V14.5385H511.833V15.8462H514.667V17.1538H511.833V19.7692H510.417V21.0769H509V22.3846H511.833V21.0769H513.25V19.7692H516.083V23.6923H517.5V25H518.917V19.7692H521.75V21.0769H524.583V22.3846H526V19.7692H523.167V18.4615H520.333V15.8462H523.167V14.5385H524.583V13.2308H526V11.9231H523.167V13.2308H520.333V14.5385H518.917V10.6154Z" fill="#DC78FF" style="fill:#DC78FF;fill:color(display-p3 0.8625 0.4710 1.0000);fill-opacity:1;"/>
<path opacity="0.3" d="M790.333 45.6154H789V43H787.667V49.5385H786.333V48.2308H785V46.9231H782.333V49.5385H783.667V50.8462H786.333V52.1538H783.667V54.7692H782.333V56.0769H781V57.3846H783.667V56.0769H785V54.7692H787.667V58.6923H789V60H790.333V54.7692H793V56.0769H795.667V57.3846H797V54.7692H794.333V53.4615H791.667V50.8462H794.333V49.5385H795.667V48.2308H797V46.9231H794.333V48.2308H791.667V49.5385H790.333V45.6154Z" fill="#DC78FF" style="fill:#DC78FF;fill:color(display-p3 0.8625 0.4710 1.0000);fill-opacity:1;"/>
<path opacity="0.3" d="M1112.33 54.6154H1111V52H1109.67V58.5385H1108.33V57.2308H1107V55.9231H1104.33V58.5385H1105.67V59.8462H1108.33V61.1538H1105.67V63.7692H1104.33V65.0769H1103V66.3846H1105.67V65.0769H1107V63.7692H1109.67V67.6923H1111V69H1112.33V63.7692H1115V65.0769H1117.67V66.3846H1119V63.7692H1116.33V62.4615H1113.67V59.8462H1116.33V58.5385H1117.67V57.2308H1119V55.9231H1116.33V57.2308H1113.67V58.5385H1112.33V54.6154Z" fill="#DC78FF" style="fill:#DC78FF;fill:color(display-p3 0.8625 0.4710 1.0000);fill-opacity:1;"/>
<path opacity="0.3" d="M1212.33 239.615H1211V237H1209.67V243.538H1208.33V242.231H1207V240.923H1204.33V243.538H1205.67V244.846H1208.33V246.154H1205.67V248.769H1204.33V250.077H1203V251.385H1205.67V250.077H1207V248.769H1209.67V252.692H1211V254H1212.33V248.769H1215V250.077H1217.67V251.385H1219V248.769H1216.33V247.462H1213.67V244.846H1216.33V243.538H1217.67V242.231H1219V240.923H1216.33V242.231H1213.67V243.538H1212.33V239.615Z" fill="#DC78FF" style="fill:#DC78FF;fill:color(display-p3 0.8625 0.4710 1.0000);fill-opacity:1;"/>
<path opacity="0.3" d="M13.3333 47.6154H12V45H10.6667V51.5385H9.33333V50.2308H8V48.9231H5.33333V51.5385H6.66667V52.8462H9.33333V54.1538H6.66667V56.7692H5.33333V58.0769H4V59.3846H6.66667V58.0769H8V56.7692H10.6667V60.6923H12V62H13.3333V56.7692H16V58.0769H18.6667V59.3846H20V56.7692H17.3333V55.4615H14.6667V52.8462H17.3333V51.5385H18.6667V50.2308H20V48.9231H17.3333V50.2308H14.6667V51.5385H13.3333V47.6154Z" fill="#DC78FF" style="fill:#DC78FF;fill:color(display-p3 0.8625 0.4710 1.0000);fill-opacity:1;"/>
<path opacity="0.3" d="M9.33333 337.615H8V335H6.66667V341.538H5.33333V340.231H4V338.923H1.33333V341.538H2.66667V342.846H5.33333V344.154H2.66667V346.769H1.33333V348.077H0V349.385H2.66667V348.077H4V346.769H6.66667V350.692H8V352H9.33333V346.769H12V348.077H14.6667V349.385H16V346.769H13.3333V345.462H10.6667V342.846H13.3333V341.538H14.6667V340.231H16V338.923H13.3333V340.231H10.6667V341.538H9.33333V337.615Z" fill="#DC78FF" style="fill:#DC78FF;fill:color(display-p3 0.8625 0.4710 1.0000);fill-opacity:1;"/>
<path opacity="0.3" d="M182.833 449.615H181.5V447H180.167V453.538H178.833V452.231H177.5V450.923H174.833V453.538H176.167V454.846H178.833V456.154H176.167V458.769H174.833V460.077H173.5V461.385H176.167V460.077H177.5V458.769H180.167V462.692H181.5V464H182.833V458.769H185.5V460.077H188.167V461.385H189.5V458.769H186.833V457.462H184.167V454.846H186.833V453.538H188.167V452.231H189.5V450.923H186.833V452.231H184.167V453.538H182.833V449.615Z" fill="#DC78FF" style="fill:#DC78FF;fill:color(display-p3 0.8625 0.4710 1.0000);fill-opacity:1;"/>
<path opacity="0.3" d="M313.333 475.615H312V473H310.667V479.538H309.333V478.231H308V476.923H305.333V479.538H306.667V480.846H309.333V482.154H306.667V484.769H305.333V486.077H304V487.385H306.667V486.077H308V484.769H310.667V488.692H312V490H313.333V484.769H316V486.077H318.667V487.385H320V484.769H317.333V483.462H314.667V480.846H317.333V479.538H318.667V478.231H320V476.923H317.333V478.231H314.667V479.538H313.333V475.615Z" fill="#DC78FF" style="fill:#DC78FF;fill:color(display-p3 0.8625 0.4710 1.0000);fill-opacity:1;"/>
<path opacity="0.3" d="M623.333 466.615H622V464H620.667V470.538H619.333V469.231H618V467.923H615.333V470.538H616.667V471.846H619.333V473.154H616.667V475.769H615.333V477.077H614V478.385H616.667V477.077H618V475.769H620.667V479.692H622V481H623.333V475.769H626V477.077H628.667V478.385H630V475.769H627.333V474.462H624.667V471.846H627.333V470.538H628.667V469.231H630V467.923H627.333V469.231H624.667V470.538H623.333V466.615Z" fill="#DC78FF" style="fill:#DC78FF;fill:color(display-p3 0.8625 0.4710 1.0000);fill-opacity:1;"/>
<path opacity="0.3" d="M730.333 346.615H729V344H727.667V350.538H726.333V349.231H725V347.923H722.333V350.538H723.667V351.846H726.333V353.154H723.667V355.769H722.333V357.077H721V358.385H723.667V357.077H725V355.769H727.667V359.692H729V361H730.333V355.769H733V357.077H735.667V358.385H737V355.769H734.333V354.462H731.667V351.846H734.333V350.538H735.667V349.231H737V347.923H734.333V349.231H731.667V350.538H730.333V346.615Z" fill="#DC78FF" style="fill:#DC78FF;fill:color(display-p3 0.8625 0.4710 1.0000);fill-opacity:1;"/>
<path opacity="0.3" d="M615.333 186.615H614V184H612.667V190.538H611.333V189.231H610V187.923H607.333V190.538H608.667V191.846H611.333V193.154H608.667V195.769H607.333V197.077H606V198.385H608.667V197.077H610V195.769H612.667V199.692H614V201H615.333V195.769H618V197.077H620.667V198.385H622V195.769H619.333V194.462H616.667V191.846H619.333V190.538H620.667V189.231H622V187.923H619.333V189.231H616.667V190.538H615.333V186.615Z" fill="#DC78FF" style="fill:#DC78FF;fill:color(display-p3 0.8625 0.4710 1.0000);fill-opacity:1;"/>
<path opacity="0.3" d="M964.333 481.615H963V479H961.667V485.538H960.333V484.231H959V482.923H956.333V485.538H957.667V486.846H960.333V488.154H957.667V490.769H956.333V492.077H955V493.385H957.667V492.077H959V490.769H961.667V494.692H963V496H964.333V490.769H967V492.077H969.667V493.385H971V490.769H968.333V489.462H965.667V486.846H968.333V485.538H969.667V484.231H971V482.923H968.333V484.231H965.667V485.538H964.333V481.615Z" fill="#DC78FF" style="fill:#DC78FF;fill:color(display-p3 0.8625 0.4710 1.0000);fill-opacity:1;"/>
</svg>
