<svg width="256" height="256" viewBox="0 0 256 256" fill="none" xmlns="http://www.w3.org/2000/svg">
<path d="M32 16H16V32H0V224H16V240H32V256H224V240H240V224H256V32H240V16H224V0H32V16ZM224 32H240V224H224V240H32V224H16V32H32V16H224V32Z" fill="#F8A4F0" style="fill:#F8A4F0;fill:color(display-p3 0.9725 0.6431 0.9412);fill-opacity:1;"/>
<path d="M64 64H32V96H64V128H32V160H64V192H32V208H48V224H208V208H224V48H208V32H192V64H160V32H128V64H96V32H64V64ZM96 96H128V64H160V96H128V128H96V160H64V128H96V96H64V64H96V96Z" fill="#F8A4F0" style="fill:#F8A4F0;fill:color(display-p3 0.9725 0.6431 0.9412);fill-opacity:1;"/>
</svg>
