<svg width="83" height="19" viewBox="0 0 83 19" fill="none" xmlns="http://www.w3.org/2000/svg">
<path fill-rule="evenodd" clip-rule="evenodd" d="M2.5 1.5H0.5V3.5V15.5V17.5H2.5H22H24V15.5V3.5V1.5H22H2.5ZM2.5 3.5H4.5H20H22V5.5V13.5V15.5H20H4.5H2.5V13.5V5.5V3.5ZM11.3636 7.16667H8.81818V6H5V8.33333H7.54545V10.6667H5V13H8.81818V11.8333H11.3636V10.6667H12.6364V11.8333H15.1818V13H19V10.6667H16.4545V8.33333H19V6H15.1818V7.16667H12.6364V8.33333H11.3636V7.16667Z" fill="#140428" style="fill:#140428;fill:color(display-p3 0.0797 0.0147 0.1561);fill-opacity:1;"/>
<path fill-rule="evenodd" clip-rule="evenodd" d="M32 1.5H30V3.5V15.5V17.5H32H51.5H53.5V15.5V3.5V1.5H51.5H32ZM32 3.5H34H49.5H51.5V5.5V13.5V15.5H49.5H34H32V13.5V5.5V3.5ZM35 13H48V6H35V13ZM37.3636 8.33333V10.6667H45.6364V8.33333H37.3636Z" fill="#140428" style="fill:#140428;fill:color(display-p3 0.0797 0.0147 0.1561);fill-opacity:1;"/>
<path fill-rule="evenodd" clip-rule="evenodd" d="M61.5 1.5H59.5V3.5V15.5V17.5H61.5H81H83V15.5V3.5V1.5H81H61.5ZM61.5 3.5H63.5H79H81V5.5V13.5V15.5H79H63.5H61.5V13.5V5.5V3.5ZM64 11H78V8H64V11Z" fill="#140428" style="fill:#140428;fill:color(display-p3 0.0797 0.0147 0.1561);fill-opacity:1;"/>
</svg>
