<svg width="922" height="466" viewBox="0 0 922 466" fill="none" xmlns="http://www.w3.org/2000/svg">
<path opacity="0.3" fill-rule="evenodd" clip-rule="evenodd" d="M204.5 438.5H203V437H200V438.5H198.5V440H197V441.5H195.5V443H194V444.5H186.5V446H185V449H186.5V450.5H188V452H189.5V455H188V459.5H186.5V464H189.5V462.5H192.5V459.5H195.5V461H198.5V462.5H200V464H201.5V465.5H204.5V464H206V455H204.5V453.5H209V452H212V447.5H209V446H206V444.5H204.5V438.5ZM197 444.5H198.5V443H201.5V446H203V447.5H204.5V449H206V450.5H204.5V452H201.5V456.5H203V459.5H200V458H197V456.5H192.5V458H191V455H192.5V450.5H191V449H189.5V447.5H195.5V446H197V444.5Z" fill="#DC78FF" style="fill:#DC78FF;fill:color(display-p3 0.8625 0.4710 1.0000);fill-opacity:1;"/>
<path opacity="0.3" fill-rule="evenodd" clip-rule="evenodd" d="M19.5 15.5H18V14H15V15.5H13.5V17H12V18.5H10.5V20H9V21.5H1.5V23H0V26H1.5V27.5H3V29H4.5V32H3V36.5H1.5V41H4.5V39.5H7.5V36.5H10.5V38H13.5V39.5H15V41H16.5V42.5H19.5V41H21V32H19.5V30.5H24V29H27V24.5H24V23H21V21.5H19.5V15.5ZM12 21.5H13.5V20H16.5V23H18V24.5H19.5V26H21V27.5H19.5V29H16.5V33.5H18V36.5H15V35H12V33.5H7.5V35H6V32H7.5V27.5H6V26H4.5V24.5H10.5V23H12V21.5Z" fill="#DC78FF" style="fill:#DC78FF;fill:color(display-p3 0.8625 0.4710 1.0000);fill-opacity:1;"/>
<path opacity="0.3" fill-rule="evenodd" clip-rule="evenodd" d="M914.5 137.5H913V136H910V137.5H908.5V139H907V140.5H905.5V142H904V143.5H896.5V145H895V148H896.5V149.5H898V151H899.5V154H898V158.5H896.5V163H899.5V161.5H902.5V158.5H905.5V160H908.5V161.5H910V163H911.5V164.5H914.5V163H916V154H914.5V152.5H919V151H922V146.5H919V145H916V143.5H914.5V137.5ZM907 143.5H908.5V142H911.5V145H913V146.5H914.5V148H916V149.5H914.5V151H911.5V155.5H913V158.5H910V157H907V155.5H902.5V157H901V154H902.5V149.5H901V148H899.5V146.5H905.5V145H907V143.5Z" fill="#DC78FF" style="fill:#DC78FF;fill:color(display-p3 0.8625 0.4710 1.0000);fill-opacity:1;"/>
<path opacity="0.3" d="M316 55H313V37H310V43H307V52H304V58H301V61H295V64H298V67H301V70H304V82H307V76H310V73H313V67H319V64H322V61H319V58H316V55Z" fill="#DC78FF" style="fill:#DC78FF;fill:color(display-p3 0.8625 0.4710 1.0000);fill-opacity:1;"/>
<path opacity="0.3" fill-rule="evenodd" clip-rule="evenodd" d="M659 30H656V27H653V24H650V21H653V18H659V12H662V9V6H665V0H668V15H671V18H674V21H677V24H671V27H668V33H665V39H662V45H659V30Z" fill="#DC78FF" style="fill:#DC78FF;fill:color(display-p3 0.8625 0.4710 1.0000);fill-opacity:1;"/>
</svg>
