<svg width="49" height="47" viewBox="0 0 49 47" fill="none" xmlns="http://www.w3.org/2000/svg">
<g filter="url(#filter0_di_448_399)">
<path d="M23 3V4H22.5H22V5V6H21.5H21V7.5V9H20.5H20V9.5V10H19.5H19V10.5V11H18.5H18V11.5V12H17H16V12.5V13H15H14V13.5V14H13.5H13V14.5V15H10.5H8V15.5V16H7.5H7V18V20H8H9V20.5V21H11H13V20.5V20H15.5H18V19.5V19H18.5H19V18.5V18H20H21V18.5V19H21.5H22V20.5V22H21.5H21V24.5V27H20.5H20V28.5V30H20.5H21V32V34H21.5H22V34.5V35H24H26V34V33H26.5H27V28.5V24H27.5H28V21V18H29H30V18.5V19H32H34V19.5V20H35.5H37V19.5V19H39.5H42V18.5V18H42.5H43V17.5V17H42.5H42V15.5V14H41.5H41V13.5V13H36.5H32V12V11H31.5H31V10.5V10H30.5H30V9V8H29.5H29V7.5V7H28.5H28V5V3H27.5H27V2.5V2H25H23V3Z" fill="#F8A4F0" style="fill:#F8A4F0;fill:color(display-p3 0.9725 0.6431 0.9412);fill-opacity:1;"/>
<path d="M4 27.5V28H3.5H3V28.5V29H2.5H2V35V41H2.5H3V41.5V42H3.5H4V42.5V43H6H8V43.5V44H13H18V44.5V45H28.5H39V44.5V44H42H45V43.5V43H45.5H46V42.5V42H46.5H47V38V34H46.5H46V31V28H45.5H45V27.5V27H42.5H40V27.5V28H39.5H39V30V32H39.5H40V34.5V37H40.5H41V37.5V38H38.5H36V38.5V39H28.5H21V38.5V38H16H11V37.5V37H9.5H8V34.5V32H8.5H9V30V28H8.5H8V27.5V27H6H4V27.5Z" fill="#F8A4F0" style="fill:#F8A4F0;fill:color(display-p3 0.9725 0.6431 0.9412);fill-opacity:1;"/>
</g>
<defs>
<filter id="filter0_di_448_399" x="0.75" y="0.75" width="47.5" height="45.5" filterUnits="userSpaceOnUse" color-interpolation-filters="sRGB">
<feFlood flood-opacity="0" result="BackgroundImageFix"/>
<feColorMatrix in="SourceAlpha" type="matrix" values="0 0 0 0 0 0 0 0 0 0 0 0 0 0 0 0 0 0 127 0" result="hardAlpha"/>
<feOffset/>
<feGaussianBlur stdDeviation="0.625"/>
<feComposite in2="hardAlpha" operator="out"/>
<feColorMatrix type="matrix" values="0 0 0 0 0.862455 0 0 0 0 0.47098 0 0 0 0 1 0 0 0 1 0"/>
<feBlend mode="normal" in2="BackgroundImageFix" result="effect1_dropShadow_448_399"/>
<feBlend mode="normal" in="SourceGraphic" in2="effect1_dropShadow_448_399" result="shape"/>
<feColorMatrix in="SourceAlpha" type="matrix" values="0 0 0 0 0 0 0 0 0 0 0 0 0 0 0 0 0 0 127 0" result="hardAlpha"/>
<feOffset/>
<feGaussianBlur stdDeviation="0.58125"/>
<feComposite in2="hardAlpha" operator="arithmetic" k2="-1" k3="1"/>
<feColorMatrix type="matrix" values="0 0 0 0 0.862455 0 0 0 0 0.47098 0 0 0 0 1 0 0 0 1 0"/>
<feBlend mode="normal" in2="shape" result="effect2_innerShadow_448_399"/>
</filter>
</defs>
</svg>
