<svg width="48" height="14" viewBox="0 0 48 14" fill="none" xmlns="http://www.w3.org/2000/svg">
<path d="M22 2.5H19V1H8.5V2.5H5.5V4H4V5.5H2.5V7H1V10H4V8.5H5.5V7H7V5.5H10V4H17.5V5.5H20.5V7H22V8.5H23.5V10H26.5V11.5H29.5V13H40V11.5H43V10H44.5V8.5H46V7H47.5V4H44.5V5.5H43V7H41.5V8.5H38.5V10H31V8.5H28V7H26.5V5.5H25V4H22V2.5Z" fill="#FFC7F9" stroke="#FFC7F9" style="fill:#FFC7F9;fill:color(display-p3 1.0000 0.7785 0.9778);fill-opacity:1;stroke:#FFC7F9;stroke:color(display-p3 1.0000 0.7785 0.9778);stroke-opacity:1;" stroke-width="0.75"/>
</svg>
