<svg width="55" height="24" viewBox="0 0 55 24" fill="none" xmlns="http://www.w3.org/2000/svg">
<mask id="mask0_162_379" style="mask-type:alpha" maskUnits="userSpaceOnUse" x="0" y="0" width="55" height="24">
<rect width="55" height="24" fill="#D9D9D9" style="fill:#D9D9D9;fill:color(display-p3 0.8510 0.8510 0.8510);fill-opacity:1;"/>
</mask>
<g mask="url(#mask0_162_379)">
<path d="M22 4V2H8V4H4V6H2V8H5.96046e-08V10H-2V14H2V12H4V10H6V8H10V6H20V8H24V10H26V12H28V14H32V16H36V18H50V16H54V14H56V12H58V10H60V6H56V8H54V10H52V12H48V14H38V12H34V10H32V8H30V6H26V4H22Z" fill="#f795ee" stroke="#f795ee" style="fill:#f795ee;fill-opacity:1;stroke:#f795ee;stroke-opacity:1;" stroke-width="2"/>
</g>
</svg>
